<svg width="94" height="44" viewBox="0 0 94 44" fill="none" xmlns="http://www.w3.org/2000/svg">
<rect x="1.5" y="10.5" width="82" height="32" stroke="white" stroke-width="3"/>
<path d="M25.0413 35V18.8H27.9813V25.58H31.2813V18.8H34.2413V35H31.2813V27.68H27.9813V35H25.0413ZM37.9 35L41.14 18.8H44.3L47.54 35H44.8L44.16 31.26H41.34L40.68 35H37.9ZM41.64 29.38H43.84L42.74 22.58L41.64 29.38ZM59.0497 38.22C58.7164 38.06 58.3564 37.82 57.9697 37.5C57.5964 37.18 57.223 36.8133 56.8497 36.4C56.4897 36 56.1764 35.6 55.9097 35.2C55.8564 35.2133 55.7964 35.22 55.7297 35.22C55.6764 35.22 55.6164 35.22 55.5497 35.22C54.403 35.22 53.4897 35.0067 52.8097 34.58C52.1297 34.1533 51.643 33.54 51.3497 32.74C51.0564 31.94 50.9097 30.9933 50.9097 29.9V23.84C50.9097 22.7467 51.0564 21.8133 51.3497 21.04C51.643 20.2533 52.1297 19.6533 52.8097 19.24C53.4897 18.8267 54.403 18.62 55.5497 18.62C56.723 18.62 57.6497 18.8267 58.3297 19.24C59.0097 19.6533 59.4964 20.2533 59.7897 21.04C60.083 21.8133 60.2297 22.7467 60.2297 23.84V29.92C60.2297 30.6933 60.1564 31.3933 60.0097 32.02C59.863 32.6467 59.623 33.1933 59.2897 33.66C58.9564 34.1133 58.5164 34.4667 57.9697 34.72C58.143 34.9067 58.323 35.1 58.5097 35.3C58.6964 35.5 58.883 35.6867 59.0697 35.86C59.2564 36.0333 59.4364 36.1733 59.6097 36.28L59.0497 38.22ZM55.5497 33.04C56.043 33.04 56.4097 32.9333 56.6497 32.72C56.8897 32.5067 57.0497 32.2133 57.1297 31.84C57.2097 31.4667 57.2497 31.06 57.2497 30.62V23.16C57.2497 22.7067 57.2097 22.3 57.1297 21.94C57.0497 21.58 56.8897 21.3 56.6497 21.1C56.4097 20.8867 56.043 20.78 55.5497 20.78C55.0697 20.78 54.7097 20.8867 54.4697 21.1C54.2297 21.3 54.0697 21.58 53.9897 21.94C53.923 22.3 53.8897 22.7067 53.8897 23.16V30.62C53.8897 31.06 53.923 31.4667 53.9897 31.84C54.0697 32.2133 54.2297 32.5067 54.4697 32.72C54.7097 32.9333 55.0697 33.04 55.5497 33.04Z" fill="white"/>
<path d="M89.5 38V33.5H92.5V1.5H10.5V4.5H6.5" stroke="white" stroke-width="3"/>
</svg>
